<svg width="103" height="103" viewBox="0 0 103 103" fill="none" xmlns="http://www.w3.org/2000/svg">
<path d="M86.9322 72.7901L22.2132 8.07107C18.3079 4.16582 11.9763 4.16582 8.07102 8.07107V8.07107C4.16578 11.9763 4.16577 18.308 8.07102 22.2132L72.7901 86.9323" stroke="#FFAC30"/>
<path d="M86.8225 72.6323L94.0621 94.062L72.6324 86.8225" stroke="#FFAC30"/>
<path d="M8.07102 8.07107C11.9763 4.16583 18.3079 4.16583 22.2132 8.07107L27.7481 13.606L13.606 27.7481L8.07102 22.2132C4.16578 18.308 4.16578 11.9763 8.07102 8.07107Z" fill="#FFAC30"/>
<line x1="17.6464" y1="31.6464" x2="31.6464" y2="17.6464" stroke="#FFAC30"/>
<line x1="25.7071" y1="25" x2="31" y2="30.2929" stroke="#FFAC30" stroke-linecap="round"/>
<line x1="35.7071" y1="35" x2="80" y2="79.2929" stroke="#FFAC30" stroke-linecap="round"/>
<path d="M49.5 35.6758L78.7623 6.41348C81.1055 4.07033 84.9044 4.07034 87.2476 6.41348L92.9044 12.0703C95.2476 14.4135 95.2476 18.2125 92.9044 20.5556L63.9601 49.5M49.5 63.9601L20.3848 93.0753C18.0416 95.4184 14.2426 95.4184 11.8995 93.0753L6.24264 87.4184C3.8995 85.0753 3.8995 81.2763 6.24264 78.9331L35.6758 49.5" stroke="#FFAC30"/>
<line x1="73.435" y1="38.4558" x2="65.6568" y2="30.6776" stroke="#FFAC30" stroke-linecap="round" stroke-linejoin="round"/>
<line x1="90.4056" y1="21.4854" x2="82.6274" y2="13.7072" stroke="#FFAC30" stroke-linecap="round" stroke-linejoin="round"/>
<line x1="79.0918" y1="32.7991" x2="76.2634" y2="29.9706" stroke="#FFAC30" stroke-linecap="round" stroke-linejoin="round"/>
<line x1="67.7781" y1="44.1128" x2="64.9497" y2="41.2844" stroke="#FFAC30" stroke-linecap="round" stroke-linejoin="round"/>
<line x1="84.7487" y1="27.1421" x2="81.9203" y2="24.3137" stroke="#FFAC30" stroke-linecap="round" stroke-linejoin="round"/>
<line x1="38.4349" y1="74.1924" x2="30.6567" y2="66.4142" stroke="#FFAC30" stroke-linecap="round" stroke-linejoin="round"/>
<line x1="20.7781" y1="90.9292" x2="12.9999" y2="83.151" stroke="#FFAC30" stroke-linecap="round" stroke-linejoin="round"/>
<line x1="44.0918" y1="68.5356" x2="41.2634" y2="65.7072" stroke="#FFAC30" stroke-linecap="round" stroke-linejoin="round"/>
<line x1="26.4351" y1="85.2725" x2="23.6067" y2="82.444" stroke="#FFAC30" stroke-linecap="round" stroke-linejoin="round"/>
<line x1="32.7781" y1="79.8494" x2="29.9497" y2="77.0209" stroke="#FFAC30" stroke-linecap="round" stroke-linejoin="round"/>
</svg>
