<svg width="94" height="92" viewBox="0 0 94 92" fill="none" xmlns="http://www.w3.org/2000/svg">
<path d="M55.2791 39L78.3469 56.7197C80.802 58.6057 81.3233 62.0969 79.5261 64.6177V64.6177C77.6797 67.2077 74.0815 67.8066 71.4957 65.9544L64.8872 61.2209" stroke="#FFAC30" stroke-linecap="round"/>
<path d="M55.2792 39C50.7792 35.5 46.7792 38 40.7792 38C36.2792 38 32.2792 35.5 31.7792 31.5C31.4041 28.5 43.2792 27.4999 48.2792 26.9999C53.2792 26.5 57.2792 29 60.7792 30C63.5792 30.8 68.7792 28.6667 71.2792 27.5" stroke="#FFAC30"/>
<path d="M66.6457 62.4348L71.1993 65.7946C73.3721 67.3978 73.8576 70.4472 72.2901 72.6459V72.6459C70.7193 74.8492 67.6695 75.3813 65.4454 73.84L59.1574 69.4826" stroke="#FFAC30" stroke-linecap="round"/>
<path d="M59.279 69.5L64.889 73.5516C66.7514 74.8967 67.1487 77.5077 65.7707 79.3459V79.3459C64.3994 81.1753 61.7983 81.533 59.984 80.1417L53.2791 75" stroke="#FFAC30" stroke-linecap="round"/>
<path d="M53.2791 75L57.8834 78.4532C59.7589 79.8598 60.1393 82.5204 58.7332 84.3962V84.3962C57.3637 86.223 54.7946 86.6397 52.918 85.3392L47.7792 81.7781" stroke="#FFAC30" stroke-linecap="round"/>
<rect x="12.1177" y="60.6109" width="19.6318" height="9.93922" rx="4.96961" transform="rotate(-39.3518 12.1177 60.6109)" stroke="#FFAC30"/>
<rect x="25.0914" y="75.8645" width="19.0117" height="10.0037" rx="5.00185" transform="rotate(-39.3518 25.0914 75.8645)" stroke="#FFAC30"/>
<rect x="31.3865" y="83.7661" width="15.3281" height="9.42482" rx="4.71241" transform="rotate(-39.3518 31.3865 83.7661)" stroke="#FFAC30"/>
<rect x="18.4827" y="68.3638" width="24.6156" height="10.0037" rx="5.00185" transform="rotate(-39.3518 18.4827 68.3638)" stroke="#FFAC30"/>
<rect x="0.252441" y="53.4248" width="38.5581" height="6.64481" rx="3.3224" transform="rotate(-60 0.252441 53.4248)" fill="#FFAC30"/>
<rect width="38.5581" height="7.6328" rx="3.8164" transform="matrix(-0.5 -0.866025 -0.866025 0.5 93.6685 52.9309)" fill="#FFAC30"/>
<path d="M8.27905 52C10.2791 52 12.7791 52.5 16.2791 57" stroke="#FFAC30"/>
<path d="M84.7791 52C83.0291 52 80.8416 52.4 77.7791 56" stroke="#FFAC30"/>
<line x1="21.9227" y1="27.5211" x2="31.9227" y2="30.5211" stroke="#FFAC30"/>
<line x1="46.2791" y1="11.5" x2="46.2791" y2="0.5" stroke="#FFAC30" stroke-linecap="round"/>
<line x1="33.0888" y1="16.8466" x2="26.6257" y2="6.69027" stroke="#FFAC30" stroke-linecap="round"/>
<line x1="0.5" y1="-0.5" x2="12.5384" y2="-0.5" transform="matrix(0.536875 -0.843661 -0.843661 -0.536875 59.7791 17)" stroke="#FFAC30" stroke-linecap="round"/>
</svg>
