<svg width="77" height="87" viewBox="0 0 77 87" fill="none" xmlns="http://www.w3.org/2000/svg">
<path d="M8 32.5V79C8 82.3137 10.6863 85 14 85H55.5" stroke="#FFAC30" stroke-linecap="round"/>
<path d="M1 37.6013L38 9.60132L75.8018 37.6013" stroke="#FFAC30" stroke-linecap="round" stroke-linejoin="round"/>
<circle cx="37.5" cy="52.5" r="17" stroke="#FFAC30"/>
<path fill-rule="evenodd" clip-rule="evenodd" d="M37.5 64C43.8513 64 49 58.8513 49 52.5C49 46.1487 43.8513 41 37.5 41C31.1487 41 26 46.1487 26 52.5C26 58.8513 31.1487 64 37.5 64ZM43.8433 48.8635C44.0441 48.6739 44.0531 48.3574 43.8635 48.1567C43.6739 47.9559 43.3574 47.9469 43.1567 48.1365L35.0294 55.8123L31.8433 52.8032C31.6426 52.6136 31.3261 52.6226 31.1365 52.8234C30.9469 53.0241 30.9559 53.3406 31.1567 53.5302L35.0294 57.1877L43.8433 48.8635Z" fill="#FFAC30"/>
<path d="M52.364 61.7071L68.2396 77.5827C69.8017 79.1448 69.8017 81.6775 68.2396 83.2396C66.6775 84.8017 64.1449 84.8017 62.5828 83.2396L46.7072 67.364L52.364 61.7071Z" stroke="#FFAC30"/>
<line x1="67.5" y1="31.5" x2="67.5" y2="69.5" stroke="#FFAC30" stroke-linecap="round"/>
</svg>
