<svg width="18" height="15" viewBox="0 0 18 15" fill="none" xmlns="http://www.w3.org/2000/svg">
<path d="M17.75 1.36719L15.0938 13.7891C14.8854 14.6745 14.4036 14.9089 13.6484 14.4922L9.625 11.5234L7.67188 13.3984C7.41146 13.6589 7.13802 13.7891 6.85156 13.7891L7.16406 9.6875L14.625 2.96875C14.8073 2.78646 14.8073 2.68229 14.625 2.65625C14.4688 2.60417 14.2995 2.64323 14.1172 2.77344L4.89844 8.59375L0.914062 7.34375C0.471354 7.21354 0.263021 7.01823 0.289062 6.75781C0.315104 6.4974 0.588542 6.27604 1.10938 6.09375L16.6172 0.078125C17.0078 -0.0520833 17.3203 0 17.5547 0.234375C17.7891 0.442708 17.8542 0.820312 17.75 1.36719Z" fill="white"/>
</svg>
